<svg width="156" height="155" viewBox="0 0 156 155" fill="none" xmlns="http://www.w3.org/2000/svg">
<path d="M15.1709 67.9699C14.5413 65.6211 14.5412 63.1479 15.1706 60.7991C15.8 58.4502 17.0366 56.3084 18.7562 54.5889L54.5881 18.757C56.3075 17.0374 58.4494 15.8008 60.7982 15.1714C63.1471 14.5421 65.6202 14.5422 67.9691 15.1717L101.499 24.1559C101.848 19.5625 103.447 15.152 106.123 11.4022L65.7392 0.582446C62.8405 -0.194165 59.7886 -0.194149 56.89 0.582498C53.9913 1.35915 51.3482 2.88507 49.2262 5.0069L5.00689 49.2261C2.88505 51.3482 1.35914 53.9913 0.582498 56.89C-0.194149 59.7886 -0.194166 62.8406 0.582447 65.7392L11.8185 107.672C15.4916 104.867 19.8646 103.125 24.4603 102.637L15.1709 67.9699Z" fill="#18CDCA"/>
<path d="M130.231 51.2046L139.831 87.0298C140.461 89.3791 140.46 91.852 139.831 94.2004C139.201 96.5497 137.964 98.6913 136.245 100.411L100.413 136.244C98.6931 137.963 96.5515 139.199 94.2023 139.829C91.8538 140.458 89.3801 140.458 87.0317 139.829L52.3651 130.539C51.8766 135.135 50.1347 139.509 47.3293 143.181L89.2624 154.417C92.1607 155.194 95.2129 155.194 98.1113 154.417C101.01 153.64 103.653 152.115 105.775 149.993L149.995 105.774C152.117 103.651 153.642 101.009 154.419 98.1095C155.196 95.2111 155.196 92.1589 154.419 89.2606L142.759 45.7577C139.164 48.6923 134.829 50.5772 130.231 51.2046Z" fill="#18CDCA"/>
<path d="M12.8268 113.456C9.98689 116.295 8.05289 119.914 7.26935 123.852C6.48581 127.792 6.88794 131.875 8.42488 135.585C9.96175 139.295 12.5645 142.467 15.9037 144.698C19.2431 146.929 23.169 148.12 27.1852 148.12C31.2014 148.12 35.1274 146.929 38.4666 144.698C41.806 142.467 44.4087 139.295 45.9456 135.585C47.4825 131.875 47.8846 127.792 47.101 123.852C46.3176 119.914 44.3836 116.295 41.5437 113.456C37.7326 109.653 32.5688 107.518 27.1852 107.518C21.8016 107.518 16.6379 109.653 12.8268 113.456Z" fill="#4F80E1"/>
<path d="M112.405 11.7798C109.566 14.6196 107.631 18.2378 106.848 22.1768C106.065 26.1158 106.467 30.1987 108.004 33.9092C109.541 37.6196 112.143 40.791 115.482 43.0223C118.822 45.2536 122.748 46.4445 126.763 46.4445C130.78 46.4445 134.706 45.2536 138.046 43.0223C141.385 40.791 143.987 37.6196 145.524 33.9092C147.061 30.1987 147.463 26.1158 146.679 22.1768C145.896 18.2378 143.962 14.6196 141.122 11.7798C137.312 7.9773 132.147 5.8418 126.763 5.8418C121.38 5.8418 116.216 7.9773 112.405 11.7798Z" fill="#4F80E1"/>
<path d="M89.4194 131.326C88.6038 131.326 87.7924 131.22 87.0045 131.008L55.2716 122.505C54.2135 116.855 51.4722 111.656 47.4074 107.591C43.3425 103.527 38.1439 100.785 32.4935 99.7271L23.991 67.9967C23.5695 66.414 23.5707 64.7484 23.9946 63.1664C24.4186 61.5843 25.2503 60.1412 26.4067 58.9813L58.9771 26.4101C60.1357 25.2514 61.5788 24.4182 63.1615 23.9941C64.7443 23.5701 66.4107 23.5702 67.9933 23.9944L98.8367 32.2589C100.06 37.8743 102.951 42.9892 107.131 46.9338C111.31 50.8783 116.584 53.4686 122.261 54.3651L131.005 87.0078C131.426 88.5911 131.426 90.2568 131.001 91.8384C130.577 93.4209 129.746 94.8637 128.589 96.0241L96.0182 128.594C95.1538 129.463 94.1246 130.153 92.992 130.621C91.8595 131.09 90.6453 131.33 89.4194 131.326Z" fill="#4F80E1"/>
</svg>
