<svg width="157" height="156" viewBox="0 0 157 156" fill="none" xmlns="http://www.w3.org/2000/svg">
<path d="M37.3169 99.5494C35.6702 97.7088 34.6999 95.3621 34.5663 92.8959V62.1427C34.6995 59.6763 35.6698 57.3291 37.3169 55.489L39.4924 53.3128C40.2219 52.5816 40.6315 51.5909 40.6315 50.5578C40.6315 49.5248 40.2219 48.534 39.4924 47.8028L16.4175 24.7165C15.6858 23.9875 14.6952 23.5782 13.6625 23.5782C12.6297 23.5782 11.6391 23.9875 10.9074 24.7165L2.12397 33.5032C1.39785 34.2362 0.990479 35.2263 0.990479 36.2582C0.990479 37.2902 1.39785 38.2803 2.12397 39.0132L18.5929 55.4883C20.2429 57.3268 21.2146 59.6747 21.3465 62.142V92.8952C21.2149 95.3613 20.2431 97.7073 18.5929 99.5443L2.12397 116.026C1.39785 116.759 0.990479 117.749 0.990479 118.78C0.990479 119.812 1.39785 120.803 2.12397 121.536L10.9074 130.322C11.6392 131.051 12.6298 131.46 13.6625 131.46C14.6951 131.46 15.6858 131.051 16.4175 130.322L39.4924 107.234C40.2218 106.502 40.6315 105.512 40.6315 104.479C40.6315 103.446 40.2218 102.456 39.4924 101.725L37.3169 99.5494Z" fill="#583BD1"/>
<path d="M100.731 118.935C98.8919 120.583 96.5467 121.555 94.0813 121.691H63.3482C60.8812 121.555 58.534 120.583 56.6926 118.935L54.5223 116.754C53.788 116.027 52.7971 115.62 51.7647 115.62C50.7322 115.62 49.7413 116.027 49.0071 116.754L25.9352 139.84C25.2068 140.573 24.7979 141.565 24.7979 142.598C24.7979 143.632 25.2068 144.624 25.9352 145.356L34.7186 154.143C35.452 154.87 36.4423 155.277 37.4744 155.277C38.5065 155.277 39.4968 154.87 40.2302 154.143L56.6955 137.66C58.5364 136.013 60.8829 135.042 63.3489 134.906H94.0908C96.5562 135.041 98.9014 136.012 100.741 137.66L117.213 154.143C117.946 154.87 118.936 155.277 119.968 155.277C120.999 155.277 121.989 154.87 122.722 154.143L131.505 145.356C132.234 144.624 132.643 143.632 132.643 142.598C132.643 141.565 132.234 140.573 131.505 139.84L108.417 116.752C107.684 116.026 106.695 115.618 105.663 115.618C104.632 115.618 103.642 116.026 102.909 116.752L100.731 118.935Z" fill="#583BD1"/>
<path d="M120.664 55.7262C122.315 57.5683 123.288 59.9189 123.422 62.3895V93.131C123.287 95.6001 122.314 97.949 120.664 99.7889L118.488 101.97C117.76 102.703 117.352 103.693 117.352 104.726C117.352 105.758 117.76 106.748 118.488 107.48L141.569 130.564C142.301 131.293 143.292 131.701 144.324 131.701C145.356 131.701 146.347 131.293 147.078 130.564L155.862 121.772C156.59 121.041 157 120.05 157 119.017C157 117.984 156.59 116.993 155.862 116.261L139.397 99.7859C137.746 97.9461 136.771 95.5971 136.637 93.1281L136.641 62.3865C136.774 59.9162 137.746 57.5654 139.397 55.7232L155.862 39.2482C156.59 38.5179 157 37.5281 157 36.4961C157 35.4642 156.59 34.4744 155.862 33.7441L147.078 24.9522C146.716 24.5904 146.287 24.3032 145.815 24.1074C145.342 23.9115 144.836 23.8107 144.324 23.8107C143.812 23.8107 143.306 23.9115 142.833 24.1074C142.36 24.3032 141.931 24.5904 141.569 24.9522L118.488 48.0349C117.76 48.7673 117.352 49.7578 117.352 50.7903C117.352 51.8227 117.76 52.8132 118.488 53.5456L120.664 55.7262Z" fill="#583BD1"/>
<path d="M57.2488 36.3406C59.0874 34.691 61.434 33.7189 63.9001 33.5852H94.6357C97.1011 33.7213 99.4464 34.6931 101.286 36.3406L103.467 38.5211C103.828 38.883 104.257 39.1699 104.729 39.3658C105.202 39.5616 105.708 39.6624 106.219 39.6624C106.73 39.6624 107.237 39.5616 107.709 39.3658C108.181 39.1699 108.611 38.883 108.972 38.5211L132.05 15.4334C132.778 14.7004 133.187 13.7089 133.187 12.6754C133.187 11.642 132.778 10.6505 132.05 9.91751L123.267 1.1411C122.536 0.41043 121.545 0 120.511 0C119.478 0 118.487 0.41043 117.756 1.1411L101.287 17.6162C99.4471 19.2636 97.1018 20.2354 94.6364 20.3715H63.9001C61.434 20.2378 59.0874 19.2657 57.2488 17.6162L40.7799 1.1411C40.0466 0.414877 39.0564 0.00750816 38.0244 0.00750816C36.9926 0.00750816 36.0024 0.414877 35.269 1.1411L26.4856 9.92777C25.7574 10.6606 25.3486 11.652 25.3486 12.6853C25.3486 13.7186 25.7574 14.71 26.4856 15.4429L49.5582 38.5204C50.2892 39.2511 51.2803 39.6615 52.3137 39.6615C53.347 39.6615 54.3381 39.2511 55.0691 38.5204L57.2488 36.3406Z" fill="#583BD1"/>
</svg>
