<svg width="117" height="155" viewBox="0 0 117 155" fill="none" xmlns="http://www.w3.org/2000/svg">
<path d="M99.2703 31.0985C94.6425 31.1038 90.2054 32.9446 86.9338 36.2172C83.6616 39.4897 81.8208 43.9267 81.8164 48.5545V92.0339C81.8654 95.1454 81.2954 98.235 80.1386 101.124C78.9819 104.012 77.2624 106.641 75.0797 108.859C72.8966 111.077 70.2945 112.838 67.4245 114.04C64.5545 115.242 61.4739 115.861 58.3624 115.861C55.2508 115.861 52.1704 115.242 49.3004 114.04C46.4304 112.838 43.8282 111.077 41.6455 108.859C39.4627 106.641 37.7429 104.012 36.5863 101.124C35.4297 98.235 34.8593 95.1454 34.9084 92.0339V48.5545C34.9084 43.9254 33.0695 39.4859 29.7962 36.2126C26.5229 32.9393 22.0833 31.1003 17.4542 31.1003C12.8251 31.1003 8.38552 32.9393 5.11221 36.2126C1.83891 39.4859 0 43.9254 0 48.5545V96.6376C-2.28413e-07 104.302 1.50958 111.891 4.44257 118.972C7.37556 126.053 11.6745 132.486 17.094 137.906C22.5134 143.326 28.9472 147.625 36.0281 150.558C43.1089 153.49 50.6981 155 58.3624 155C66.0267 155 73.616 153.49 80.6969 150.558C87.7778 147.625 94.2113 143.326 99.6305 137.906C105.05 132.486 109.349 126.053 112.282 118.972C115.215 111.891 116.725 104.302 116.725 96.6376V48.5545C116.72 43.9267 114.88 39.4897 111.607 36.2172C108.335 32.9446 103.898 31.1038 99.2703 31.0985ZM109.089 96.6339C109.089 110.088 103.744 122.99 94.2311 132.503C84.7182 142.015 71.8158 147.36 58.3624 147.36C44.909 147.36 32.0066 142.015 22.4937 132.503C12.9807 122.99 7.63629 110.088 7.63629 96.6339V48.5545C7.65865 45.9654 8.70281 43.4898 10.5417 41.6668C12.3804 39.8438 14.8649 38.821 17.4542 38.821C20.0435 38.821 22.528 39.8438 24.3668 41.6668C26.2055 43.4898 27.2498 45.9654 27.2721 48.5545V92.0339C27.2721 100.28 30.5477 108.188 36.3782 114.018C42.2088 119.849 50.1168 123.124 58.3624 123.124C66.6081 123.124 74.5163 119.849 80.3469 114.018C86.1768 108.188 89.4527 100.28 89.4527 92.0339V48.5545C89.4527 45.9507 90.4867 43.4534 92.3282 41.6123C94.1697 39.771 96.6666 38.7366 99.2703 38.7366C101.875 38.7366 104.372 39.771 106.213 41.6123C108.054 43.4534 109.089 45.9507 109.089 48.5545V96.6339Z" fill="url(#paint0_linear_206_18)"/>
<path d="M54.5443 39.9975V90.3342C54.5443 91.347 54.9466 92.3181 55.6626 93.0343C56.3786 93.7504 57.3498 94.1523 58.3624 94.1523C59.375 94.1523 60.3462 93.7504 61.0622 93.0343C61.7783 92.3181 62.1806 91.347 62.1806 90.3342V39.9975C67.1102 39.0477 71.5089 36.2945 74.5177 32.2757C77.5262 28.2568 78.9292 23.2609 78.4521 18.2632C77.9749 13.2656 75.6526 8.6253 71.9376 5.24824C68.2228 1.87121 63.3827 0 58.3624 0C53.3421 0 48.502 1.87121 44.7872 5.24824C41.0725 8.6253 38.7498 13.2656 38.2728 18.2632C37.7957 23.2609 39.1985 28.2568 42.2073 32.2757C45.216 36.2945 49.6146 39.0477 54.5443 39.9975ZM58.3624 7.64449C60.8437 7.64449 63.2692 8.38028 65.3323 9.75883C67.3955 11.1374 69.0035 13.0967 69.9529 15.3891C70.9024 17.6816 71.1509 20.2041 70.6668 22.6377C70.1826 25.0713 68.9877 27.3067 67.2331 29.0612C65.4785 30.8156 63.2431 32.0104 60.8095 32.4944C58.3758 32.9784 55.8533 32.7298 53.561 31.7802C51.2686 30.8305 49.3094 29.2224 47.9309 27.1593C46.5525 25.0961 45.8168 22.6705 45.817 20.1892C45.8209 16.8632 47.1439 13.6745 49.4958 11.3228C51.8477 8.97101 55.0364 7.64815 58.3624 7.64449Z" fill="url(#paint1_linear_206_18)"/>
<defs>
<linearGradient id="paint0_linear_206_18" x1="0" y1="93.0496" x2="116.725" y2="93.0496" gradientUnits="userSpaceOnUse">
<stop stop-color="#EC441E"/>
<stop offset="1" stop-color="#EE2A4A"/>
</linearGradient>
<linearGradient id="paint1_linear_206_18" x1="38.1814" y1="47.0762" x2="78.5434" y2="47.0762" gradientUnits="userSpaceOnUse">
<stop stop-color="#EC441E"/>
<stop offset="1" stop-color="#EE2A4A"/>
</linearGradient>
</defs>
</svg>
