<svg width="154" height="155" viewBox="0 0 154 155" fill="none" xmlns="http://www.w3.org/2000/svg">
<path d="M130.849 132.184C145.314 117.665 153.422 97.9974 153.394 77.5032C153.379 76.2382 152.866 75.0301 151.966 74.1412C151.066 73.2516 149.852 72.7535 148.587 72.7535C147.321 72.7535 146.108 73.2516 145.208 74.1412C144.307 75.0301 143.795 76.2382 143.779 77.5032C143.8 95.4634 136.69 112.698 124.012 125.42C117.858 131.739 110.501 136.761 102.374 140.19C94.2476 143.618 85.5166 145.385 76.6964 145.385C67.8762 145.385 59.1452 143.618 51.0187 140.19C42.8922 136.761 35.5347 131.739 29.3804 125.42C16.72 112.686 9.61383 95.4577 9.61383 77.5004C9.61383 59.5425 16.72 42.3148 29.3804 29.5796C35.4989 23.3099 42.8011 18.3171 50.8637 14.8907C58.9263 11.4644 67.5889 9.67255 76.3492 9.61923C78.2195 9.67781 79.9931 10.4649 81.2917 11.8125C82.5903 13.1601 83.3108 14.9618 83.2996 16.8331C83.2891 18.7045 82.5475 20.4976 81.2335 21.8301C79.9194 23.1625 78.1368 23.9288 76.2657 23.9656C76.0924 23.966 75.9191 23.9756 75.7472 23.9944C62.4193 24.4236 49.7733 29.9886 40.4533 39.5258C30.6108 49.4339 25.0868 62.8329 25.0868 76.7988C25.0868 90.7649 30.6108 104.164 40.4533 114.072C45.2617 118.998 51.0067 122.912 57.3502 125.584C63.6937 128.256 70.5079 129.633 77.391 129.633C84.2741 129.633 91.0884 128.256 97.432 125.584C103.775 122.912 109.52 118.998 114.329 114.072C124.186 104.174 129.713 90.7684 129.693 76.7988C129.713 74.5987 129.297 72.4154 128.47 70.3766C127.641 68.3382 126.417 66.4837 124.868 64.9206C123.319 63.3574 121.476 62.1166 119.445 61.2699C117.414 60.4231 115.236 59.9871 113.035 59.9871C110.834 59.9871 108.656 60.4231 106.625 61.2699C104.594 62.1166 102.751 63.3574 101.202 64.9206C99.6525 66.4837 98.429 68.3382 97.6004 70.3766C96.7726 72.4154 96.3565 74.5987 96.3769 76.7988C96.3769 76.9391 96.386 77.071 96.3972 77.2057C96.386 77.3404 96.3769 77.4751 96.3769 77.6126C96.4085 81.4488 95.2993 85.2078 93.1903 88.4133C91.0821 91.6181 88.0689 94.1241 84.5337 95.6142C80.9985 97.1036 77.0998 97.5098 73.3338 96.7809C69.5671 96.0513 66.1022 94.2202 63.3784 91.5184C60.6545 88.8167 58.7946 85.3671 58.0346 81.6066C57.2746 77.8462 57.6487 73.9448 59.1095 70.3977C60.5703 66.85 63.052 63.8164 66.2396 61.6817C69.4273 59.547 73.1774 58.4073 77.0135 58.4071C77.6499 58.4148 78.2813 58.2961 78.8713 58.058C79.4613 57.8198 79.998 57.4669 80.4505 57.0198C80.9031 56.5726 81.263 56.04 81.5078 55.4529C81.7534 54.8658 81.8796 54.2359 81.8796 53.5996C81.8796 52.9634 81.7534 52.3334 81.5078 51.7463C81.263 51.1592 80.9031 50.6266 80.4505 50.1795C79.998 49.7323 79.4613 49.3794 78.8713 49.1412C78.2813 48.9031 77.6499 48.7844 77.0135 48.7921C71.3203 48.8237 65.7637 50.5409 61.0451 53.7269C56.3266 56.9131 52.6573 61.4253 50.5004 66.6945C48.3436 71.9636 47.7957 77.7536 48.9258 83.3339C50.0559 88.9142 52.8134 94.0343 56.8506 98.0493C60.8876 102.064 66.0234 104.793 71.61 105.892C77.1959 106.991 82.9832 106.411 88.2401 104.225C93.4969 102.038 97.9891 98.3447 101.149 93.6084C104.309 88.8721 105.995 83.3058 105.995 77.6126C105.995 77.4723 105.986 77.3404 105.974 77.2057C105.986 77.071 105.995 76.9363 105.995 76.7988C105.976 75.8622 106.144 74.9312 106.49 74.0599C106.835 73.1892 107.352 72.3957 108.007 71.7271C108.663 71.0578 109.446 70.526 110.309 70.1633C111.173 69.8006 112.101 69.6137 113.038 69.6137C113.974 69.6137 114.903 69.8006 115.766 70.1633C116.63 70.526 117.413 71.0578 118.069 71.7271C118.724 72.3957 119.24 73.1892 119.586 74.0599C119.931 74.9312 120.1 75.8622 120.081 76.7988C120.093 88.2358 115.566 99.2097 107.493 107.311C103.579 111.332 98.899 114.528 93.7292 116.71C88.5593 118.893 83.0043 120.017 77.3924 120.017C71.7812 120.017 66.2264 118.893 61.0565 116.71C55.8866 114.528 51.2064 111.332 47.2922 107.311C39.2301 99.2027 34.7048 88.233 34.7048 76.7988C34.7048 65.3646 39.2301 54.3951 47.2922 46.2868C51.2095 42.2706 55.8898 39.0777 61.0584 36.8958C66.2269 34.7138 71.7791 33.5867 77.3896 33.5807C77.821 33.5795 78.2504 33.52 78.6664 33.4039C82.7594 32.7762 86.4756 30.6595 89.1037 27.4599C91.7318 24.2602 93.0858 20.203 92.9062 16.0664C92.7266 11.9298 91.0253 8.00526 88.1299 5.04554C85.2345 2.08579 81.3485 0.299297 77.217 0.0287646C77.0444 0.00996609 76.8704 0.000364185 76.6964 0C76.5996 0 76.5035 0 76.4067 0C76.359 0 76.3127 0 76.2664 0C76.2201 0 76.1724 0.0056087 76.1261 0.00701184C66.1315 0.0856128 56.2513 2.14182 47.0552 6.05709C37.859 9.97233 29.529 15.6692 22.545 22.8193C8.10462 37.3543 0 57.0112 0 77.5004C0 97.989 8.10462 117.646 22.545 132.181C29.5935 139.403 38.0156 145.144 47.3157 149.062C56.6157 152.981 66.6058 155 76.6978 155C86.7899 155 96.7796 152.981 106.08 149.062C115.38 145.144 123.802 139.403 130.851 132.181L130.849 132.184Z" fill="url(#paint0_linear_206_5)"/>
<defs>
<linearGradient id="paint0_linear_206_5" x1="22.2422" y1="131.905" x2="119.72" y2="36.51" gradientUnits="userSpaceOnUse">
<stop stop-color="#41287B"/>
<stop offset="0.123" stop-color="#462779"/>
<stop offset="0.284" stop-color="#572775"/>
<stop offset="0.465" stop-color="#72266E"/>
<stop offset="0.663" stop-color="#982565"/>
<stop offset="0.87" stop-color="#C82459"/>
<stop offset="0.99" stop-color="#E72452"/>
</linearGradient>
</defs>
</svg>
