<svg width="153" height="155" viewBox="0 0 153 155" fill="none" xmlns="http://www.w3.org/2000/svg">
<path d="M84.1166 26.5434L90.0049 20.6551C101.568 9.09213 120.393 8.80593 132.022 20.3023C136.429 24.6682 139.357 30.3048 140.396 36.4203C141.435 42.536 140.532 48.8233 137.814 54.3993C136.51 57.0629 136.071 60.0671 136.557 62.9925C137.044 65.9178 138.431 68.6181 140.527 70.7163C144.381 66.8537 147.435 62.2696 149.517 57.2261C151.598 52.1825 152.666 46.7783 152.658 41.3221C152.65 35.866 151.568 30.4648 149.472 25.4272C147.376 20.3895 144.308 15.8141 140.444 11.9624C124.182 -4.20774 97.786 -3.88596 81.5696 12.3296L25.4445 68.4532L20.8305 63.8392C9.07137 52.0801 8.99642 32.8587 20.963 21.3085C25.3925 17.0464 31.0357 14.2641 37.1139 13.3457C43.192 12.4272 49.4053 13.418 54.8964 16.1812C57.4027 17.4655 60.2507 17.925 63.0337 17.4939C65.8167 17.0629 68.3924 15.7634 70.3927 13.7811L70.5358 13.6387C70.5803 13.5945 70.6156 13.5419 70.6398 13.4839C70.6639 13.426 70.6763 13.3638 70.6763 13.3011C70.6763 13.2383 70.6639 13.1761 70.6398 13.1182C70.6156 13.0603 70.5803 13.0077 70.5358 12.9634C62.811 5.4326 52.4593 1.20258 41.6711 1.16838C30.8829 1.13419 20.5045 5.2985 12.7321 12.7801C-4.01047 28.9428 -3.95064 55.8196 12.505 72.2753L68.6135 128.384L62.6533 134.344C51.0903 145.907 32.2648 146.193 20.6359 134.697C16.2293 130.331 13.3009 124.694 12.262 118.579C11.2232 112.463 12.126 106.176 14.8438 100.6C16.1477 97.9362 16.5871 94.9319 16.1008 92.007C15.6144 89.0815 14.2265 86.3808 12.131 84.2827C8.27736 88.1456 5.22259 92.7294 3.14112 97.7726C1.05965 102.817 -0.00769255 108.22 4.1734e-05 113.677C0.00777605 119.133 1.09044 124.534 3.1862 129.572C5.28196 134.61 8.34975 139.185 12.2143 143.037C28.4753 159.208 54.8722 158.887 71.0885 142.67L127.286 86.4716L131.918 91.103C143.481 102.666 143.767 121.491 132.271 133.12C127.905 137.527 122.268 140.455 116.153 141.494C110.037 142.533 103.75 141.63 98.1736 138.912C95.5093 137.607 92.5034 137.167 89.5771 137.655C86.6507 138.142 83.9493 139.531 81.8512 141.628C85.7142 145.482 90.2979 148.537 95.3412 150.619C100.385 152.7 105.789 153.768 111.246 153.76C116.702 153.752 122.103 152.669 127.14 150.573C132.178 148.477 136.754 145.409 140.605 141.545C156.776 125.284 156.454 98.8872 140.239 82.6715L84.1166 26.5434ZM76.9919 120.001L33.8252 76.8348L75.7351 34.9257L118.902 78.0924L76.9919 120.001Z" fill="#18CDCA"/>
</svg>
